<svg id="svg" xmlns="http://www.w3.org/2000/svg" xmlns:xlink="http://www.w3.org/1999/xlink" width="400" height="87.5" viewBox="0, 0, 400,87.5"><g id="svgg"><path id="path0" d="M190.583 12.278 C 190.125 12.312,189.600 12.406,189.417 12.486 C 189.233 12.567,188.633 12.723,188.083 12.835 C 186.709 13.112,185.179 13.848,183.679 14.952 C 183.258 15.262,181.267 17.231,180.835 17.765 C 180.481 18.202,180.046 18.964,179.654 19.833 C 179.468 20.246,179.209 20.780,179.078 21.020 C 178.947 21.261,178.755 22.011,178.652 22.687 C 178.549 23.363,178.398 24.047,178.316 24.206 C 178.234 24.365,178.167 25.210,178.167 26.083 C 178.167 26.957,178.234 27.801,178.316 27.961 C 178.398 28.120,178.549 28.801,178.651 29.474 C 178.754 30.147,179.024 31.105,179.252 31.604 C 179.480 32.102,179.667 32.541,179.667 32.580 C 179.667 32.718,180.745 34.266,181.455 35.147 C 182.225 36.103,184.142 37.757,184.833 38.062 C 185.062 38.163,185.334 38.325,185.436 38.422 C 185.539 38.519,185.951 38.705,186.353 38.834 C 186.755 38.963,187.121 39.116,187.167 39.174 C 187.793 39.959,197.000 39.972,197.000 39.188 C 197.000 39.124,197.342 38.972,197.759 38.849 C 198.177 38.725,198.609 38.540,198.721 38.437 C 198.832 38.334,199.178 38.107,199.491 37.932 C 200.724 37.240,203.167 34.755,203.167 34.191 C 203.167 34.086,203.235 34.000,203.320 34.000 C 203.404 34.000,203.606 33.644,203.769 33.208 C 203.933 32.773,204.111 32.379,204.166 32.333 C 204.389 32.148,204.709 30.678,204.793 29.456 C 204.842 28.741,204.946 28.117,205.024 28.068 C 205.224 27.945,205.203 26.542,205.000 26.417 C 204.908 26.360,204.833 26.018,204.833 25.657 L 204.833 25.000 198.328 25.000 L 191.822 25.000 191.869 26.792 L 191.917 28.583 196.560 28.628 L 201.204 28.672 201.086 29.461 C 201.021 29.895,200.918 30.287,200.858 30.333 C 200.798 30.379,200.648 30.717,200.525 31.083 C 200.153 32.196,198.180 34.667,197.663 34.667 C 197.602 34.667,197.387 34.809,197.186 34.984 C 196.985 35.158,196.486 35.399,196.077 35.520 C 195.668 35.641,195.333 35.789,195.333 35.849 C 195.333 36.401,189.253 36.397,188.833 35.846 C 188.787 35.785,188.421 35.630,188.020 35.501 C 187.618 35.371,187.205 35.184,187.103 35.085 C 187.000 34.985,186.654 34.744,186.333 34.547 C 185.370 33.958,183.725 32.175,183.561 31.542 C 183.508 31.335,183.403 31.167,183.329 31.167 C 183.254 31.167,183.064 30.773,182.905 30.292 C 182.747 29.810,182.558 29.377,182.485 29.330 C 182.052 29.044,182.032 23.320,182.464 23.009 C 182.535 22.958,182.725 22.485,182.888 21.958 C 183.051 21.431,183.238 21.000,183.304 21.000 C 183.370 21.000,183.573 20.723,183.754 20.385 C 184.033 19.863,185.221 18.592,186.295 17.667 C 189.167 15.192,196.781 15.682,198.549 18.455 C 199.008 19.176,199.335 19.074,200.604 17.813 C 201.280 17.141,201.833 16.508,201.833 16.406 C 201.833 16.024,198.902 13.678,198.414 13.670 C 198.321 13.668,197.976 13.523,197.648 13.347 C 197.320 13.171,196.571 12.940,195.984 12.833 C 195.397 12.726,194.767 12.575,194.583 12.497 C 194.181 12.325,191.740 12.191,190.583 12.278 M244.917 12.280 C 244.458 12.313,243.933 12.406,243.750 12.486 C 243.567 12.567,242.977 12.722,242.440 12.832 C 241.903 12.942,241.105 13.212,240.666 13.433 C 240.227 13.653,239.827 13.833,239.776 13.833 C 239.324 13.833,235.500 17.022,235.500 17.398 C 235.500 17.452,235.237 17.841,234.917 18.261 C 234.596 18.682,234.333 19.132,234.333 19.263 C 234.333 19.393,234.264 19.500,234.180 19.500 C 234.095 19.500,233.936 19.781,233.825 20.125 C 233.715 20.469,233.491 21.050,233.327 21.417 C 232.092 24.184,232.577 30.006,234.291 32.985 C 235.441 34.986,238.105 37.693,239.294 38.071 C 239.499 38.136,239.667 38.244,239.667 38.311 C 239.667 38.378,239.948 38.532,240.292 38.654 C 240.635 38.775,241.223 39.012,241.598 39.179 C 243.465 40.014,250.736 40.020,251.332 39.187 C 251.379 39.122,251.745 38.963,252.147 38.834 C 252.549 38.705,252.961 38.520,253.064 38.424 C 253.166 38.328,253.475 38.140,253.750 38.005 C 254.502 37.636,257.000 35.358,257.000 35.040 C 257.000 34.955,257.140 34.759,257.310 34.604 C 257.481 34.450,257.760 34.007,257.931 33.620 C 258.101 33.233,258.297 32.876,258.366 32.826 C 258.435 32.777,258.617 32.214,258.770 31.576 C 258.923 30.938,259.122 30.255,259.211 30.058 C 259.405 29.627,259.461 25.504,259.277 25.208 C 259.177 25.047,257.668 25.000,252.651 25.000 L 246.155 25.000 246.203 26.792 L 246.250 28.583 250.875 28.628 C 254.568 28.663,255.500 28.716,255.500 28.892 C 255.500 29.371,255.113 31.000,255.000 31.000 C 254.933 31.000,254.757 31.320,254.607 31.710 C 254.128 32.965,252.102 34.870,250.645 35.437 C 250.244 35.592,249.836 35.781,249.737 35.857 C 249.046 36.383,243.527 36.380,243.172 35.853 C 243.123 35.781,242.690 35.583,242.208 35.412 C 241.727 35.241,241.333 35.046,241.333 34.978 C 241.333 34.911,241.180 34.807,240.992 34.747 C 240.494 34.589,238.000 32.063,238.000 31.717 C 238.000 31.622,237.860 31.366,237.688 31.147 C 237.516 30.929,237.246 30.300,237.086 29.750 C 236.927 29.200,236.722 28.607,236.631 28.432 C 236.396 27.984,236.412 23.946,236.649 23.867 C 236.750 23.833,236.833 23.670,236.833 23.505 C 236.833 23.140,237.354 21.482,237.541 21.250 C 237.615 21.158,237.894 20.746,238.161 20.333 C 240.779 16.289,246.314 14.764,250.666 16.888 C 251.791 17.437,251.898 17.513,252.889 18.439 C 253.664 19.164,253.565 19.195,254.963 17.788 C 256.337 16.404,256.335 16.411,255.677 15.745 C 254.841 14.900,254.599 14.704,254.125 14.488 C 253.873 14.374,253.667 14.223,253.667 14.154 C 253.667 14.084,253.310 13.894,252.875 13.731 C 252.440 13.567,252.046 13.381,252.000 13.315 C 251.885 13.154,249.968 12.667,249.448 12.667 C 249.217 12.667,249.003 12.602,248.972 12.524 C 248.908 12.358,246.141 12.192,244.917 12.280 M338.606 12.907 C 338.160 13.027,337.748 13.191,337.689 13.271 C 337.631 13.351,337.368 13.529,337.104 13.665 C 335.593 14.445,334.795 16.205,334.706 18.958 L 334.634 21.167 332.984 21.167 L 331.333 21.167 331.333 22.833 L 331.333 24.500 333.000 24.500 L 334.667 24.500 334.667 31.917 L 334.667 39.333 336.583 39.333 L 338.500 39.333 338.500 31.917 L 338.500 24.500 340.750 24.500 L 343.000 24.500 343.000 22.833 L 343.000 21.167 340.750 21.167 L 338.500 21.167 338.500 19.775 C 338.500 16.668,339.857 15.612,342.792 16.434 C 343.069 16.512,343.167 16.469,343.167 16.269 C 343.167 16.121,343.229 16.000,343.306 16.000 C 343.545 16.000,344.081 13.347,343.882 13.149 C 343.391 12.658,340.096 12.507,338.606 12.907 M208.667 26.083 L 208.667 39.333 214.167 39.333 C 217.192 39.333,219.667 39.274,219.667 39.201 C 219.667 39.128,220.196 38.977,220.844 38.866 C 221.871 38.690,223.139 38.176,224.897 37.221 C 225.453 36.920,228.000 34.428,228.000 34.186 C 228.000 34.097,228.112 33.911,228.250 33.774 C 228.617 33.407,229.445 31.543,229.668 30.583 C 229.774 30.125,229.949 29.570,230.056 29.349 C 230.338 28.768,230.325 22.970,230.042 22.875 C 229.927 22.837,229.833 22.678,229.833 22.521 C 229.833 22.075,229.334 20.270,229.183 20.172 C 229.108 20.123,228.943 19.793,228.816 19.437 C 228.689 19.082,228.491 18.755,228.376 18.711 C 228.261 18.667,228.167 18.527,228.167 18.399 C 228.167 17.317,223.612 13.934,221.654 13.562 C 221.340 13.502,221.004 13.391,220.906 13.315 C 220.528 13.021,217.560 12.836,213.208 12.835 L 208.667 12.833 208.667 26.083 M271.167 26.083 L 271.167 39.333 276.667 39.333 C 279.692 39.333,282.167 39.274,282.167 39.201 C 282.167 39.128,282.696 38.977,283.344 38.866 C 284.371 38.690,285.639 38.176,287.397 37.221 C 287.953 36.920,290.500 34.428,290.500 34.186 C 290.500 34.097,290.612 33.911,290.750 33.774 C 291.117 33.407,291.945 31.543,292.168 30.583 C 292.274 30.125,292.449 29.570,292.556 29.349 C 292.838 28.768,292.825 22.970,292.542 22.875 C 292.427 22.837,292.333 22.678,292.333 22.521 C 292.333 22.075,291.834 20.270,291.683 20.172 C 291.608 20.123,291.443 19.793,291.316 19.437 C 291.189 19.082,290.991 18.755,290.876 18.711 C 290.761 18.667,290.667 18.527,290.667 18.399 C 290.667 17.317,286.112 13.934,284.154 13.562 C 283.840 13.502,283.504 13.391,283.406 13.315 C 283.028 13.021,280.060 12.836,275.708 12.835 L 271.167 12.833 271.167 26.083 M383.000 18.411 L 383.000 21.167 381.417 21.167 L 379.833 21.167 379.833 22.833 L 379.833 24.500 381.409 24.500 L 382.984 24.500 383.034 30.423 C 383.067 34.344,383.143 36.386,383.259 36.465 C 383.356 36.530,383.533 36.825,383.653 37.120 C 383.772 37.416,384.062 37.864,384.296 38.117 C 384.697 38.550,384.920 38.699,386.043 39.286 C 386.891 39.729,391.021 39.701,391.473 39.249 C 391.578 39.144,390.955 36.833,390.822 36.833 C 390.760 36.833,390.663 36.607,390.608 36.329 C 390.516 35.872,390.464 35.837,390.045 35.950 C 388.995 36.235,388.114 36.088,387.500 35.526 L 386.917 34.992 386.866 29.746 L 386.816 24.500 388.991 24.500 L 391.167 24.500 391.167 22.833 L 391.167 21.167 389.004 21.167 L 386.842 21.167 386.796 18.458 L 386.750 15.750 384.875 15.703 L 383.000 15.656 383.000 18.411 M219.127 16.652 C 219.286 16.736,219.923 16.932,220.542 17.088 C 221.160 17.243,221.667 17.426,221.667 17.493 C 221.667 17.561,221.948 17.743,222.292 17.898 C 223.280 18.344,224.878 20.102,225.414 21.333 C 225.594 21.746,225.787 22.121,225.844 22.167 C 226.494 22.694,226.482 29.261,225.829 30.083 C 225.756 30.175,225.564 30.582,225.401 30.989 C 225.239 31.395,224.998 31.854,224.865 32.008 C 222.226 35.078,220.689 35.667,215.319 35.667 L 212.333 35.667 212.333 26.083 L 212.333 16.500 215.586 16.500 C 217.374 16.500,218.968 16.569,219.127 16.652 M281.627 16.652 C 281.786 16.736,282.423 16.932,283.042 17.088 C 283.660 17.243,284.167 17.426,284.167 17.493 C 284.167 17.561,284.448 17.743,284.792 17.898 C 285.780 18.344,287.378 20.102,287.914 21.333 C 288.094 21.746,288.287 22.121,288.344 22.167 C 288.994 22.694,288.982 29.261,288.329 30.083 C 288.256 30.175,288.064 30.582,287.901 30.989 C 287.739 31.395,287.498 31.854,287.365 32.008 C 284.726 35.078,283.189 35.667,277.819 35.667 L 274.833 35.667 274.833 26.083 L 274.833 16.500 278.086 16.500 C 279.874 16.500,281.468 16.569,281.627 16.652 M301.417 20.607 C 300.560 20.838,298.667 21.554,298.667 21.648 C 298.667 21.705,298.450 21.848,298.186 21.965 C 297.782 22.143,296.642 23.258,295.892 24.207 C 294.600 25.842,293.983 28.798,294.313 31.769 C 294.664 34.935,296.434 37.705,298.803 38.800 C 299.141 38.956,299.457 39.136,299.505 39.201 C 300.088 39.974,306.457 40.019,307.221 39.255 C 307.335 39.141,307.717 38.943,308.069 38.816 C 308.421 38.689,308.745 38.491,308.789 38.376 C 308.833 38.261,308.955 38.167,309.061 38.167 C 309.490 38.167,311.833 35.375,311.833 34.863 C 311.833 34.785,311.533 34.621,311.167 34.500 C 310.800 34.379,310.500 34.227,310.500 34.163 C 310.500 34.098,310.144 33.912,309.708 33.749 C 309.273 33.586,308.840 33.393,308.746 33.321 C 308.647 33.244,308.436 33.370,308.246 33.617 C 307.889 34.083,306.532 35.469,306.140 35.768 C 303.507 37.778,298.631 35.380,298.058 31.793 L 297.957 31.167 305.002 31.167 L 312.046 31.167 311.963 29.149 C 311.917 28.039,311.805 27.083,311.714 27.024 C 311.623 26.965,311.498 26.642,311.436 26.306 C 311.048 24.198,308.929 21.940,306.500 21.047 C 305.424 20.651,302.266 20.378,301.417 20.607 M350.833 20.611 C 350.604 20.659,350.342 20.756,350.250 20.826 C 350.158 20.897,349.858 21.006,349.583 21.069 C 348.265 21.372,345.993 23.216,345.319 24.530 C 345.146 24.868,344.939 25.185,344.859 25.234 C 344.778 25.284,344.614 25.683,344.494 26.121 C 344.373 26.558,344.214 26.958,344.139 27.009 C 343.698 27.308,343.686 32.803,344.125 33.385 C 344.208 33.494,344.369 33.911,344.483 34.311 C 344.822 35.494,346.879 38.167,347.451 38.167 C 347.570 38.167,347.667 38.240,347.667 38.329 C 347.667 39.628,356.216 40.416,356.989 39.188 C 357.041 39.105,357.354 38.925,357.685 38.787 C 358.936 38.266,361.340 35.770,361.330 35.001 C 361.329 34.851,360.691 34.440,359.742 33.978 L 358.158 33.206 357.417 34.145 C 355.786 36.212,353.661 36.887,351.176 36.128 C 350.495 35.920,350.353 35.818,349.351 34.816 C 348.291 33.757,348.227 33.658,347.929 32.657 C 347.439 31.008,346.729 31.167,354.583 31.167 L 361.500 31.167 361.500 29.805 C 361.500 28.120,361.219 26.435,360.810 25.669 C 360.640 25.350,360.500 25.012,360.500 24.919 C 360.500 24.011,357.780 21.570,356.294 21.145 C 355.903 21.033,355.488 20.869,355.371 20.780 C 355.139 20.605,351.511 20.470,350.833 20.611 M369.042 20.611 C 368.744 20.653,368.500 20.751,368.500 20.829 C 368.500 20.907,368.208 21.020,367.851 21.080 C 366.640 21.285,364.925 22.626,364.486 23.713 C 364.367 24.008,364.192 24.302,364.099 24.365 C 363.743 24.607,363.887 27.190,364.305 28.038 C 364.938 29.325,366.523 30.667,367.408 30.667 C 367.550 30.667,367.667 30.736,367.667 30.820 C 367.667 30.904,368.210 31.093,368.875 31.240 C 369.540 31.387,370.233 31.576,370.417 31.660 C 370.600 31.745,371.154 31.894,371.648 31.993 C 375.922 32.849,375.574 36.500,371.220 36.500 C 370.389 36.500,369.111 36.099,368.669 35.698 C 368.497 35.543,368.258 35.329,368.137 35.221 C 367.629 34.770,367.217 34.216,367.012 33.708 C 366.757 33.077,366.627 33.055,365.728 33.489 C 365.361 33.667,364.878 33.858,364.655 33.914 C 363.004 34.332,363.193 35.491,365.253 37.577 C 367.272 39.622,370.562 40.384,373.937 39.588 C 375.600 39.196,377.740 37.594,378.087 36.481 C 378.156 36.262,378.293 36.031,378.393 35.967 C 378.762 35.731,378.623 33.001,378.195 32.083 C 377.719 31.062,376.400 29.797,375.501 29.500 C 375.134 29.379,374.833 29.222,374.833 29.151 C 374.833 29.081,374.252 28.900,373.542 28.750 C 372.831 28.600,372.100 28.409,371.917 28.326 C 371.733 28.244,371.069 28.061,370.440 27.919 C 367.463 27.251,366.892 25.432,369.302 24.288 C 370.241 23.842,371.813 23.814,372.583 24.228 C 372.858 24.377,373.158 24.501,373.250 24.504 C 373.491 24.513,374.191 25.163,374.638 25.792 C 375.108 26.453,375.129 26.454,376.443 25.833 C 377.025 25.558,377.609 25.333,377.741 25.333 C 379.454 25.333,376.669 21.776,374.461 21.145 C 374.070 21.033,373.650 20.866,373.528 20.773 C 373.297 20.597,369.984 20.477,369.042 20.611 M312.417 21.333 C 312.360 21.425,312.384 21.500,312.469 21.500 C 312.555 21.500,312.673 21.738,312.731 22.029 C 312.789 22.320,313.016 22.939,313.235 23.404 C 313.453 23.869,313.727 24.569,313.843 24.958 C 313.958 25.348,314.107 25.667,314.172 25.667 C 314.238 25.667,314.338 25.899,314.395 26.182 C 314.451 26.465,314.686 27.071,314.916 27.529 C 315.145 27.986,315.333 28.451,315.333 28.562 C 315.333 28.672,315.481 29.053,315.662 29.407 C 315.842 29.762,316.116 30.434,316.269 30.901 C 316.423 31.368,316.650 31.898,316.774 32.079 C 316.898 32.260,317.000 32.517,317.000 32.651 C 317.000 32.785,317.145 33.200,317.323 33.572 C 317.501 33.945,317.801 34.644,317.990 35.125 C 318.179 35.606,318.488 36.394,318.677 36.875 C 318.866 37.356,319.179 38.106,319.373 38.542 L 319.726 39.333 321.600 39.333 L 323.473 39.333 323.762 38.458 C 323.921 37.977,324.144 37.433,324.258 37.250 C 324.372 37.067,324.519 36.729,324.586 36.500 C 324.652 36.271,324.884 35.687,325.103 35.203 C 325.321 34.719,325.500 34.230,325.500 34.115 C 325.500 34.001,325.601 33.760,325.723 33.579 C 325.846 33.398,326.089 32.837,326.264 32.333 C 326.438 31.829,326.626 31.379,326.682 31.333 C 326.738 31.287,326.919 30.837,327.083 30.333 C 327.247 29.829,327.483 29.269,327.607 29.088 C 327.732 28.907,327.833 28.664,327.833 28.547 C 327.833 28.430,328.058 27.858,328.333 27.276 C 328.608 26.694,328.833 26.137,328.833 26.039 C 328.833 25.941,329.013 25.498,329.232 25.055 C 329.452 24.612,329.683 24.006,329.746 23.708 C 329.808 23.410,329.915 23.167,329.983 23.167 C 330.090 23.167,330.667 21.574,330.667 21.277 C 330.667 21.216,329.806 21.167,328.754 21.167 C 326.644 21.167,326.536 21.221,326.257 22.414 C 326.193 22.688,325.959 23.309,325.737 23.794 C 325.515 24.279,325.333 24.769,325.333 24.882 C 325.333 24.996,325.195 25.350,325.026 25.669 C 324.856 25.989,324.663 26.474,324.596 26.747 C 324.529 27.021,324.292 27.642,324.070 28.127 C 323.848 28.613,323.667 29.103,323.667 29.216 C 323.667 29.329,323.528 29.683,323.359 30.002 C 323.190 30.322,322.996 30.808,322.929 31.083 C 322.862 31.358,322.702 31.808,322.573 32.083 C 322.444 32.358,322.199 32.996,322.028 33.500 C 321.656 34.599,321.507 34.609,321.200 33.551 C 321.071 33.111,320.916 32.712,320.854 32.667 C 320.792 32.621,320.603 32.133,320.435 31.583 C 320.267 31.033,320.073 30.508,320.003 30.417 C 319.934 30.325,319.745 29.837,319.583 29.333 C 319.422 28.829,319.233 28.342,319.163 28.250 C 319.094 28.158,318.900 27.633,318.732 27.083 C 318.563 26.533,318.377 26.046,318.318 26.000 C 318.259 25.954,318.081 25.467,317.922 24.917 C 317.763 24.367,317.581 23.879,317.517 23.833 C 317.453 23.787,317.303 23.412,317.184 23.000 C 317.066 22.587,316.855 22.006,316.715 21.708 L 316.462 21.167 314.491 21.167 C 313.357 21.167,312.476 21.237,312.417 21.333 M304.627 24.153 C 304.786 24.237,305.179 24.403,305.500 24.522 C 306.555 24.913,307.623 26.186,307.933 27.424 L 308.036 27.833 303.268 27.833 C 298.027 27.833,298.283 27.892,298.743 26.791 C 299.194 25.713,300.783 24.333,301.575 24.333 C 301.717 24.333,301.833 24.258,301.833 24.167 C 301.833 23.956,304.232 23.944,304.627 24.153 M354.258 24.147 C 354.345 24.227,354.690 24.380,355.023 24.487 C 356.020 24.805,357.667 26.805,357.667 27.698 C 357.667 27.772,355.492 27.833,352.833 27.833 C 347.403 27.833,347.569 27.878,348.417 26.631 C 348.646 26.294,348.833 25.953,348.833 25.874 C 348.833 25.667,349.757 24.989,350.740 24.475 C 351.614 24.018,353.890 23.805,354.258 24.147 M185.417 47.173 C 184.775 47.243,184.025 47.419,183.750 47.566 C 183.475 47.712,183.172 47.832,183.078 47.832 C 182.983 47.833,182.503 48.093,182.010 48.410 C 176.598 51.897,178.101 59.564,184.542 61.327 C 184.977 61.446,185.333 61.591,185.333 61.649 C 185.333 61.707,185.840 61.897,186.458 62.073 C 187.077 62.248,187.621 62.438,187.667 62.496 C 187.713 62.553,188.123 62.740,188.579 62.911 C 189.034 63.082,189.484 63.289,189.579 63.371 C 189.673 63.453,189.982 63.657,190.265 63.825 C 193.004 65.446,192.715 69.074,189.727 70.589 C 188.696 71.110,185.827 71.332,185.536 70.912 C 185.470 70.818,185.113 70.607,184.741 70.443 C 184.125 70.172,183.384 69.551,182.631 68.677 C 182.474 68.495,182.109 67.837,181.820 67.214 C 181.531 66.592,181.271 66.057,181.241 66.025 C 181.170 65.946,179.440 66.520,179.333 66.657 C 179.287 66.716,178.931 66.867,178.542 66.992 C 177.194 67.426,178.063 69.723,180.479 72.115 C 181.063 72.693,181.644 73.167,181.771 73.167 C 181.897 73.167,182.000 73.228,182.000 73.302 C 182.000 73.468,183.084 74.000,183.422 74.000 C 183.557 74.000,183.667 74.068,183.667 74.152 C 183.667 74.783,189.334 74.815,190.699 74.191 C 191.130 73.994,191.545 73.833,191.621 73.833 C 192.080 73.833,193.963 72.308,194.842 71.225 C 195.177 70.813,195.667 69.588,195.667 69.163 C 195.667 68.982,195.742 68.833,195.833 68.833 C 195.934 68.833,196.000 68.111,196.000 67.000 C 196.000 65.889,195.934 65.167,195.833 65.167 C 195.742 65.167,195.667 65.030,195.667 64.863 C 195.667 64.414,195.157 63.000,194.996 63.000 C 194.919 63.000,194.813 62.869,194.762 62.708 C 194.675 62.441,194.163 61.880,193.215 61.016 C 193.013 60.832,192.549 60.528,192.185 60.343 C 191.821 60.157,191.482 59.939,191.432 59.859 C 191.383 59.778,191.002 59.617,190.588 59.501 C 190.173 59.385,189.833 59.235,189.833 59.167 C 189.833 59.099,189.365 58.913,188.792 58.754 C 188.219 58.595,187.675 58.406,187.583 58.334 C 187.492 58.263,186.985 58.069,186.458 57.905 C 185.931 57.740,185.500 57.550,185.500 57.482 C 185.500 57.415,185.243 57.274,184.928 57.170 C 183.498 56.699,182.667 55.589,182.667 54.153 C 182.667 53.427,183.083 52.167,183.323 52.166 C 183.374 52.166,183.635 51.978,183.903 51.748 C 184.170 51.518,184.676 51.244,185.028 51.139 C 185.379 51.033,185.667 50.884,185.667 50.807 C 185.667 50.625,188.051 50.624,188.258 50.806 C 188.345 50.882,188.754 51.072,189.167 51.226 C 190.143 51.593,190.845 52.248,191.301 53.218 C 191.503 53.648,191.762 54.000,191.876 54.001 C 192.145 54.002,193.725 53.450,193.833 53.317 C 193.879 53.261,194.198 53.123,194.542 53.011 C 195.121 52.823,195.534 51.833,195.033 51.833 C 194.960 51.833,194.806 51.574,194.692 51.256 C 194.489 50.697,192.860 48.838,192.563 48.829 C 192.483 48.826,192.128 48.605,191.775 48.338 C 191.422 48.071,190.897 47.802,190.608 47.740 C 190.319 47.679,189.998 47.559,189.893 47.476 C 189.723 47.339,187.163 46.971,186.750 47.024 C 186.658 47.036,186.058 47.103,185.417 47.173 M335.031 47.579 C 332.852 48.780,333.084 51.881,335.386 52.311 C 337.377 52.683,338.583 51.793,338.583 49.952 C 338.583 49.330,338.503 48.768,338.405 48.702 C 338.306 48.637,338.175 48.446,338.112 48.277 C 338.050 48.109,337.774 47.886,337.500 47.782 C 337.225 47.678,337.000 47.535,337.000 47.463 C 337.000 47.255,335.454 47.345,335.031 47.579 M246.167 60.833 L 246.167 74.000 248.000 74.000 L 249.833 74.000 249.833 68.500 L 249.833 63.000 255.250 63.000 L 260.667 63.000 260.667 61.250 L 260.667 59.500 255.250 59.500 L 249.833 59.500 249.833 55.417 L 249.833 51.333 255.833 51.333 L 261.833 51.333 261.833 49.500 L 261.833 47.667 254.000 47.667 L 246.167 47.667 246.167 60.833 M203.542 55.533 C 203.060 55.620,202.667 55.761,202.667 55.846 C 202.667 55.931,202.557 56.000,202.422 56.000 C 202.084 56.000,201.000 56.532,201.000 56.698 C 201.000 56.772,200.899 56.833,200.775 56.833 C 200.474 56.833,198.667 58.742,198.667 59.060 C 198.667 59.198,198.800 59.353,198.963 59.405 C 199.245 59.495,200.897 60.496,201.250 60.792 C 201.710 61.177,201.851 61.140,202.533 60.460 C 204.137 58.860,206.443 58.244,207.917 59.024 C 208.192 59.169,208.622 59.399,208.874 59.536 C 210.057 60.178,211.459 63.342,210.375 62.923 C 210.215 62.861,209.858 62.766,209.583 62.712 C 209.308 62.658,209.030 62.532,208.964 62.432 C 208.796 62.174,203.681 62.186,203.151 62.446 C 202.930 62.554,202.356 62.767,201.875 62.918 C 201.394 63.070,201.000 63.262,201.000 63.347 C 201.000 63.431,200.899 63.500,200.775 63.500 C 200.370 63.500,198.716 65.393,198.585 66.008 C 198.517 66.324,198.385 66.678,198.292 66.794 C 197.997 67.160,198.076 69.500,198.414 70.417 C 200.060 74.879,206.675 76.239,210.011 72.802 L 210.667 72.126 210.667 73.063 L 210.667 74.000 212.500 74.000 L 214.333 74.000 214.333 67.664 C 214.333 64.180,214.266 61.199,214.185 61.039 C 214.103 60.880,213.912 60.319,213.760 59.792 C 213.607 59.265,213.424 58.833,213.352 58.833 C 213.279 58.833,213.130 58.636,213.020 58.395 C 212.763 57.830,211.980 57.000,211.704 57.000 C 211.586 57.000,211.448 56.891,211.397 56.758 C 211.346 56.625,210.954 56.387,210.527 56.229 C 210.100 56.072,209.675 55.887,209.583 55.820 C 208.985 55.380,205.333 55.206,203.542 55.533 M225.083 55.488 C 224.109 55.765,222.747 56.547,222.086 57.209 L 221.417 57.880 221.367 56.940 L 221.317 56.000 219.492 56.000 L 217.667 56.000 217.667 65.000 L 217.667 74.000 219.487 74.000 L 221.306 74.000 221.362 68.375 C 221.401 64.380,221.475 62.653,221.617 62.417 C 221.727 62.233,221.950 61.785,222.112 61.421 C 222.474 60.608,223.583 59.490,224.423 59.091 C 225.149 58.747,227.844 58.783,227.963 59.138 C 227.999 59.246,228.125 59.333,228.244 59.333 C 228.589 59.333,229.621 60.579,229.745 61.146 C 229.808 61.430,229.928 61.706,230.013 61.758 C 230.102 61.813,230.167 64.395,230.167 67.927 L 230.167 74.000 232.010 74.000 L 233.853 74.000 233.802 67.042 L 233.750 60.083 233.195 58.917 C 231.875 56.146,228.213 54.598,225.083 55.488 M271.345 55.504 C 270.940 55.590,270.565 55.722,270.512 55.797 C 270.460 55.873,270.171 56.035,269.870 56.157 C 269.570 56.278,268.951 56.728,268.495 57.156 L 267.667 57.934 267.667 56.967 L 267.667 56.000 265.750 56.000 L 263.833 56.000 263.833 65.000 L 263.833 74.000 265.738 74.000 L 267.643 74.000 267.696 68.458 C 267.758 62.107,267.751 62.139,269.345 60.520 C 270.353 59.496,271.037 59.278,272.988 59.358 L 274.400 59.417 274.642 58.417 C 274.775 57.867,274.944 57.377,275.018 57.328 C 275.446 57.045,275.372 55.840,274.916 55.666 C 274.257 55.416,272.208 55.323,271.345 55.504 M281.042 55.533 C 280.560 55.620,280.167 55.761,280.167 55.846 C 280.167 55.931,280.057 56.000,279.922 56.000 C 279.584 56.000,278.500 56.532,278.500 56.698 C 278.500 56.772,278.399 56.833,278.275 56.833 C 277.974 56.833,276.167 58.742,276.167 59.060 C 276.167 59.198,276.300 59.353,276.463 59.405 C 276.745 59.495,278.397 60.496,278.750 60.792 C 279.210 61.177,279.351 61.140,280.033 60.460 C 281.637 58.860,283.943 58.244,285.417 59.024 C 285.692 59.169,286.122 59.399,286.374 59.536 C 287.557 60.178,288.959 63.342,287.875 62.923 C 287.715 62.861,287.358 62.766,287.083 62.712 C 286.808 62.658,286.530 62.532,286.464 62.432 C 286.296 62.174,281.181 62.186,280.651 62.446 C 280.430 62.554,279.856 62.767,279.375 62.918 C 278.894 63.070,278.500 63.262,278.500 63.347 C 278.500 63.431,278.399 63.500,278.275 63.500 C 277.870 63.500,276.216 65.393,276.085 66.008 C 276.017 66.324,275.885 66.678,275.792 66.794 C 275.497 67.160,275.576 69.500,275.914 70.417 C 276.424 71.800,277.579 73.154,278.758 73.750 C 279.120 73.933,279.454 74.132,279.500 74.192 C 279.708 74.463,281.793 74.705,283.296 74.633 C 285.161 74.543,286.303 74.047,287.511 72.802 L 288.167 72.126 288.167 73.063 L 288.167 74.000 290.000 74.000 L 291.833 74.000 291.833 67.664 C 291.833 64.180,291.766 61.199,291.685 61.039 C 291.603 60.880,291.412 60.319,291.260 59.792 C 291.107 59.265,290.924 58.833,290.852 58.833 C 290.779 58.833,290.630 58.636,290.520 58.395 C 290.263 57.830,289.480 57.000,289.204 57.000 C 289.086 57.000,288.948 56.891,288.897 56.758 C 288.846 56.625,288.454 56.387,288.027 56.229 C 287.600 56.072,287.175 55.887,287.083 55.820 C 286.485 55.380,282.833 55.206,281.042 55.533 M302.583 55.488 C 301.609 55.765,300.247 56.547,299.586 57.209 L 298.917 57.880 298.867 56.940 L 298.817 56.000 296.992 56.000 L 295.167 56.000 295.167 65.000 L 295.167 74.000 296.987 74.000 L 298.806 74.000 298.862 68.375 C 298.901 64.380,298.975 62.653,299.117 62.417 C 299.227 62.233,299.450 61.785,299.612 61.421 C 299.974 60.608,301.083 59.490,301.923 59.091 C 302.649 58.747,305.344 58.783,305.463 59.138 C 305.499 59.246,305.625 59.333,305.744 59.333 C 306.089 59.333,307.121 60.579,307.245 61.146 C 307.308 61.430,307.428 61.706,307.513 61.758 C 307.602 61.813,307.667 64.395,307.667 67.927 L 307.667 74.000 309.510 74.000 L 311.353 74.000 311.302 67.042 L 311.250 60.083 310.695 58.917 C 309.375 56.146,305.713 54.598,302.583 55.488 M321.167 55.515 C 320.754 55.594,320.267 55.728,320.083 55.812 C 318.038 56.749,317.662 56.989,316.724 57.950 C 315.549 59.154,314.759 60.452,314.494 61.613 C 314.394 62.055,314.231 62.564,314.133 62.743 C 313.907 63.156,313.902 67.169,314.128 67.312 C 314.218 67.370,314.346 67.737,314.412 68.129 C 314.534 68.862,315.470 70.784,315.969 71.327 C 316.123 71.495,316.445 71.855,316.683 72.125 C 316.921 72.396,317.352 72.757,317.641 72.928 C 317.930 73.099,318.167 73.288,318.167 73.349 C 318.167 73.410,318.410 73.556,318.708 73.673 C 319.006 73.790,319.587 74.043,320.000 74.235 C 321.154 74.771,325.560 74.754,326.699 74.208 C 327.130 74.002,327.525 73.833,327.578 73.833 C 328.036 73.833,330.047 72.072,330.622 71.168 C 331.660 69.534,331.661 69.151,330.628 68.842 C 330.250 68.728,329.674 68.493,329.348 68.318 C 328.578 67.905,328.051 67.909,327.918 68.330 C 327.539 69.523,325.700 70.907,324.165 71.154 C 323.187 71.312,321.377 71.133,321.167 70.859 C 321.121 70.799,320.843 70.617,320.550 70.454 C 318.899 69.537,317.940 67.752,317.859 65.444 C 317.806 63.948,318.019 62.386,318.304 62.169 C 318.366 62.122,318.551 61.821,318.716 61.500 C 319.145 60.664,319.826 59.968,320.589 59.583 C 320.952 59.400,321.304 59.175,321.369 59.083 C 321.593 58.769,324.900 58.876,325.232 59.208 C 325.393 59.369,325.612 59.500,325.720 59.500 C 326.166 59.501,327.833 61.448,327.833 61.968 C 327.833 62.261,328.394 62.137,329.578 61.582 C 330.039 61.365,330.623 61.138,330.875 61.076 C 331.127 61.014,331.333 60.871,331.333 60.757 C 331.333 60.383,330.971 59.500,330.817 59.500 C 330.734 59.500,330.667 59.390,330.667 59.256 C 330.667 58.937,328.697 56.833,328.398 56.833 C 328.271 56.833,328.167 56.772,328.167 56.698 C 328.167 56.532,327.083 56.000,326.744 56.000 C 326.610 56.000,326.500 55.933,326.500 55.850 C 326.500 55.436,322.784 55.202,321.167 55.515 M346.343 55.504 C 345.935 55.590,345.280 55.812,344.886 55.997 C 344.492 56.182,344.120 56.333,344.057 56.333 C 343.995 56.333,343.826 56.443,343.681 56.576 C 343.535 56.710,343.147 57.066,342.817 57.368 C 341.045 58.991,340.892 61.924,342.478 63.911 C 342.929 64.477,344.445 65.500,344.832 65.500 C 344.975 65.500,345.240 65.602,345.421 65.727 C 345.602 65.851,346.350 66.080,347.083 66.235 C 347.817 66.390,348.567 66.579,348.750 66.655 C 348.933 66.730,349.524 66.920,350.062 67.078 C 353.796 68.168,352.197 71.735,348.187 71.264 C 347.335 71.164,345.697 70.357,345.524 69.951 C 345.492 69.875,345.294 69.628,345.084 69.402 C 344.875 69.176,344.611 68.768,344.498 68.495 C 344.267 67.938,343.795 67.845,343.224 68.245 C 343.032 68.380,342.509 68.613,342.062 68.765 C 340.365 69.339,340.960 70.995,343.665 73.222 C 344.705 74.079,346.189 74.555,348.066 74.634 C 349.821 74.709,352.167 74.448,352.167 74.178 C 352.167 74.109,352.448 73.968,352.792 73.865 C 353.613 73.618,355.154 72.135,355.673 71.093 C 356.122 70.192,356.277 67.446,355.893 67.200 C 355.793 67.136,355.655 66.902,355.585 66.679 C 355.392 66.059,354.037 64.705,353.401 64.495 C 353.089 64.392,352.833 64.247,352.833 64.172 C 352.833 64.098,352.327 63.909,351.708 63.752 C 351.090 63.595,350.433 63.400,350.250 63.320 C 350.067 63.240,349.354 63.054,348.667 62.908 C 347.197 62.594,346.155 62.152,345.677 61.639 C 344.763 60.658,345.653 59.276,347.481 58.838 C 348.328 58.635,350.497 58.854,350.502 59.144 C 350.503 59.202,350.784 59.384,351.127 59.548 C 351.502 59.728,351.901 60.109,352.130 60.507 C 352.538 61.215,352.739 61.293,353.255 60.943 C 353.435 60.820,353.996 60.577,354.500 60.403 C 355.916 59.913,356.015 59.497,355.026 58.181 C 354.450 57.414,352.958 56.167,352.616 56.167 C 352.542 56.167,352.130 56.006,351.699 55.809 C 350.807 55.401,347.678 55.223,346.343 55.504 M365.160 55.501 C 362.516 55.949,359.338 58.650,358.639 61.044 C 358.526 61.432,358.374 61.791,358.302 61.842 C 358.035 62.029,357.852 64.987,358.012 66.533 C 358.099 67.376,358.230 68.108,358.302 68.158 C 358.374 68.209,358.527 68.571,358.641 68.963 C 359.007 70.216,361.099 73.000,361.675 73.000 C 361.749 73.000,361.912 73.103,362.038 73.228 C 362.353 73.544,363.262 74.000,363.575 74.000 C 363.717 74.000,363.833 74.065,363.833 74.144 C 363.833 74.792,370.419 74.812,370.639 74.163 C 370.669 74.074,370.804 74.000,370.939 74.000 C 371.240 74.000,372.153 73.537,372.462 73.228 C 372.588 73.103,372.751 73.000,372.825 73.000 C 373.036 73.000,373.991 71.987,374.475 71.250 C 374.716 70.883,374.966 70.544,375.030 70.497 C 375.858 69.878,375.496 69.206,374.000 68.583 C 372.423 67.926,372.103 67.892,371.889 68.361 C 371.632 68.923,370.175 70.500,369.913 70.500 C 369.791 70.500,369.581 70.610,369.447 70.744 C 368.768 71.423,365.827 71.374,364.836 70.668 C 364.577 70.484,364.313 70.333,364.249 70.333 C 363.830 70.333,362.441 68.445,362.081 67.384 C 359.847 60.805,367.593 55.582,371.348 61.133 C 371.615 61.528,371.833 61.921,371.833 62.008 C 371.833 62.259,372.155 62.196,373.067 61.767 C 373.534 61.547,374.242 61.271,374.640 61.153 C 375.420 60.921,375.533 60.343,374.919 59.728 C 374.780 59.590,374.667 59.372,374.667 59.245 C 374.667 59.042,372.980 57.246,372.301 56.726 C 371.872 56.397,371.028 56.000,370.758 56.000 C 370.616 56.000,370.500 55.933,370.500 55.850 C 370.500 55.445,366.887 55.208,365.160 55.501 M383.755 55.529 C 383.299 55.616,382.849 55.744,382.755 55.815 C 382.661 55.885,382.227 56.074,381.792 56.235 C 381.356 56.396,381.000 56.596,381.000 56.680 C 381.000 56.765,380.915 56.833,380.812 56.833 C 380.276 56.833,378.319 59.041,377.637 60.417 C 376.344 63.021,376.402 67.366,377.764 69.926 C 378.675 71.640,380.851 73.666,382.063 73.929 C 382.349 73.991,382.625 74.107,382.675 74.186 C 383.079 74.817,389.500 74.778,389.500 74.144 C 389.500 74.065,389.616 74.000,389.758 74.000 C 390.016 74.000,390.890 73.595,391.234 73.317 C 391.335 73.236,391.754 72.898,392.167 72.566 C 392.579 72.234,392.985 71.840,393.069 71.690 C 393.153 71.539,393.286 71.373,393.365 71.321 C 393.705 71.094,394.643 69.429,394.749 68.865 C 394.812 68.527,394.931 68.209,395.013 68.158 C 395.474 67.874,395.479 62.136,395.019 61.842 C 394.940 61.791,394.824 61.514,394.762 61.226 C 394.699 60.938,394.427 60.354,394.157 59.929 C 393.887 59.503,393.667 59.117,393.667 59.070 C 393.667 59.024,393.224 58.537,392.682 57.989 C 390.491 55.770,387.217 54.868,383.755 55.529 M334.333 65.000 L 334.333 74.000 336.167 74.000 L 338.000 74.000 338.000 65.000 L 338.000 56.000 336.167 56.000 L 334.333 56.000 334.333 65.000 M387.969 59.092 C 388.032 59.179,388.346 59.385,388.667 59.550 C 391.380 60.945,392.638 66.465,390.737 68.632 C 389.853 69.639,389.177 70.333,389.080 70.333 C 389.019 70.333,388.752 70.487,388.489 70.675 C 387.603 71.305,384.218 71.431,383.837 70.847 C 383.789 70.774,383.525 70.596,383.250 70.454 C 380.814 69.189,379.682 65.069,380.997 62.256 C 381.520 61.139,382.967 59.500,383.431 59.500 C 383.547 59.500,383.747 59.396,383.875 59.268 C 384.306 58.837,387.682 58.691,387.969 59.092 M208.801 65.527 C 209.231 65.634,209.621 65.765,209.667 65.819 C 209.713 65.873,209.956 66.024,210.208 66.153 C 211.248 66.689,209.941 69.591,208.275 70.444 C 207.986 70.592,207.707 70.780,207.654 70.861 C 207.487 71.118,205.595 71.385,204.795 71.265 C 202.920 70.984,201.575 69.139,202.148 67.633 C 202.342 67.123,203.186 66.167,203.442 66.167 C 203.552 66.167,203.751 66.059,203.882 65.927 C 204.446 65.364,207.228 65.137,208.801 65.527 M286.301 65.527 C 286.731 65.634,287.121 65.765,287.167 65.819 C 287.212 65.873,287.456 66.024,287.708 66.153 C 288.748 66.689,287.441 69.591,285.775 70.444 C 285.486 70.592,285.207 70.780,285.154 70.861 C 284.987 71.118,283.095 71.385,282.295 71.265 C 280.420 70.984,279.075 69.139,279.648 67.633 C 279.842 67.123,280.686 66.167,280.942 66.167 C 281.052 66.167,281.251 66.059,281.382 65.927 C 281.946 65.364,284.728 65.137,286.301 65.527 " stroke="none" fill="#fcfcfc" fill-rule="evenodd"></path><path id="path1" d="M17.333 30.845 C 16.829 30.921,15.818 31.174,15.085 31.408 C 14.353 31.642,13.650 31.833,13.524 31.833 C 13.282 31.833,11.430 32.896,11.000 33.281 C 10.744 33.510,9.531 34.714,9.094 35.173 C 6.422 37.977,5.330 44.190,6.796 48.250 C 7.094 49.075,7.411 49.775,7.502 49.806 C 7.593 49.836,7.667 49.951,7.667 50.061 C 7.667 50.297,8.671 51.887,9.111 52.350 C 9.474 52.731,10.539 53.765,11.110 54.292 C 11.334 54.498,11.583 54.667,11.663 54.667 C 11.744 54.667,11.909 54.764,12.030 54.882 C 12.151 55.001,12.775 55.393,13.417 55.755 C 14.058 56.116,14.707 56.488,14.857 56.581 C 15.008 56.674,15.788 57.125,16.590 57.583 C 17.393 58.042,18.371 58.604,18.765 58.833 C 21.246 60.277,22.646 61.077,23.083 61.301 C 23.358 61.442,23.621 61.605,23.667 61.664 C 23.748 61.767,26.415 63.287,27.417 63.801 C 27.692 63.942,27.954 64.107,28.000 64.168 C 28.046 64.229,28.745 64.647,29.555 65.098 C 30.364 65.548,31.151 65.993,31.305 66.087 C 31.556 66.240,34.210 67.767,36.077 68.833 C 36.478 69.063,37.469 69.632,38.278 70.099 C 39.088 70.566,40.012 71.091,40.333 71.266 C 40.654 71.440,40.954 71.627,41.000 71.681 C 41.046 71.735,41.721 72.130,42.500 72.560 C 43.279 72.989,44.217 73.526,44.583 73.752 C 44.950 73.979,45.362 74.221,45.500 74.291 C 45.824 74.455,48.166 75.807,48.965 76.291 C 49.305 76.497,49.883 76.817,50.250 77.001 C 50.617 77.185,51.329 77.594,51.833 77.910 C 52.766 78.493,56.498 80.644,57.628 81.250 C 57.970 81.433,58.288 81.629,58.333 81.685 C 58.490 81.876,59.483 82.333,59.742 82.333 C 59.884 82.333,60.000 82.398,60.000 82.478 C 60.000 82.654,61.768 83.167,62.376 83.167 C 62.617 83.167,62.862 83.245,62.921 83.340 C 63.054 83.555,67.294 83.532,67.427 83.316 C 67.478 83.234,67.721 83.166,67.968 83.165 C 68.782 83.162,71.432 82.179,72.067 81.646 C 72.167 81.561,72.594 81.270,73.013 80.999 C 73.433 80.728,74.205 80.036,74.728 79.461 C 75.964 78.104,76.102 77.933,76.346 77.471 C 76.458 77.258,76.599 77.046,76.659 77.000 C 76.718 76.954,76.898 76.617,77.058 76.250 C 77.219 75.883,77.431 75.437,77.531 75.257 C 78.713 73.134,78.705 66.670,77.519 65.090 C 77.448 64.995,77.285 64.654,77.158 64.333 C 76.199 61.913,73.811 59.650,69.932 57.485 C 69.207 57.081,68.270 56.548,67.849 56.301 C 67.132 55.881,66.796 55.686,64.804 54.534 C 64.376 54.286,63.176 53.597,62.138 53.003 C 61.100 52.408,60.125 51.846,59.973 51.753 C 59.821 51.660,58.967 51.171,58.076 50.667 C 57.185 50.163,56.109 49.544,55.686 49.292 C 55.263 49.041,54.729 48.742,54.500 48.629 C 54.271 48.516,54.046 48.376,54.000 48.317 C 53.954 48.259,53.590 48.033,53.192 47.814 C 52.793 47.595,52.142 47.229,51.745 47.000 C 50.351 46.195,48.240 44.969,47.253 44.392 C 46.704 44.072,46.037 43.766,45.770 43.712 C 45.503 43.659,44.414 43.112,43.351 42.497 C 42.287 41.882,39.692 40.384,37.583 39.168 C 35.475 37.952,32.775 36.394,31.583 35.705 C 30.392 35.016,28.442 33.890,27.250 33.204 C 23.335 30.948,20.747 30.332,17.333 30.845 " stroke="none" fill="#4483f3" fill-rule="evenodd"></path><path id="path2" d="M108.333 4.149 C 108.196 4.226,107.755 4.339,107.353 4.400 C 99.506 5.594,94.821 16.296,98.919 23.667 C 99.046 23.896,99.301 24.356,99.486 24.689 C 100.367 26.282,102.458 28.047,105.583 29.833 C 106.592 30.410,107.717 31.056,108.083 31.269 C 108.450 31.483,109.087 31.850,109.500 32.085 C 110.767 32.807,111.751 33.372,113.706 34.500 C 114.738 35.096,115.677 35.608,115.792 35.637 C 115.906 35.667,116.000 35.746,116.000 35.813 C 116.000 35.881,116.319 36.075,116.708 36.245 C 117.098 36.415,117.454 36.603,117.500 36.664 C 117.546 36.724,118.183 37.102,118.917 37.503 C 119.650 37.904,120.337 38.318,120.444 38.423 C 120.551 38.528,120.888 38.717,121.194 38.843 C 121.500 38.968,121.825 39.136,121.917 39.215 C 122.184 39.446,123.367 40.137,124.000 40.432 C 124.321 40.582,124.621 40.758,124.667 40.825 C 124.712 40.891,125.388 41.298,126.167 41.729 C 126.946 42.160,127.730 42.604,127.910 42.715 C 129.185 43.502,129.604 43.707,129.985 43.733 C 130.223 43.750,134.618 46.193,139.751 49.163 C 150.835 55.576,150.826 55.571,152.345 56.087 C 155.008 56.993,157.777 56.986,160.689 56.066 C 161.427 55.833,162.071 55.682,162.120 55.731 C 162.227 55.838,163.472 55.218,163.793 54.897 C 163.920 54.770,164.096 54.667,164.184 54.667 C 164.663 54.667,167.916 50.976,168.107 50.216 C 168.160 50.006,168.264 49.833,168.338 49.833 C 168.412 49.833,168.598 49.440,168.751 48.958 C 168.904 48.477,169.154 47.821,169.306 47.500 C 169.534 47.020,169.583 46.357,169.583 43.750 C 169.583 41.143,169.534 40.480,169.306 40.000 C 169.154 39.679,168.904 39.023,168.751 38.542 C 168.598 38.060,168.404 37.667,168.320 37.667 C 168.236 37.667,168.167 37.563,168.167 37.435 C 168.167 37.204,167.187 35.676,166.684 35.123 C 165.500 33.822,164.184 32.760,162.704 31.910 C 162.454 31.767,161.900 31.447,161.472 31.200 C 161.044 30.952,160.039 30.375,159.239 29.917 C 158.439 29.458,157.467 28.896,157.079 28.667 C 156.691 28.438,155.714 27.875,154.908 27.417 C 154.102 26.958,153.122 26.396,152.730 26.167 C 151.124 25.226,148.880 23.933,148.333 23.633 C 148.012 23.457,147.075 22.911,146.250 22.420 C 145.425 21.929,143.789 20.977,142.614 20.305 C 140.384 19.029,139.958 18.784,137.598 17.417 C 136.807 16.958,135.830 16.396,135.426 16.167 C 134.014 15.366,131.738 14.049,130.250 13.172 C 127.884 11.778,127.450 11.528,126.917 11.252 C 126.642 11.110,125.667 10.551,124.750 10.010 C 123.833 9.468,122.146 8.488,121.000 7.832 C 119.854 7.176,118.467 6.374,117.917 6.050 C 116.441 5.181,114.752 4.494,113.816 4.383 C 113.362 4.330,112.951 4.221,112.902 4.143 C 112.788 3.959,108.664 3.965,108.333 4.149 " stroke="none" fill="#0c9c5b" fill-rule="evenodd"></path><path id="path3" d="M128.918 44.210 C 128.368 44.507,127.881 44.796,127.835 44.853 C 127.788 44.909,127.412 45.125,127.000 45.333 C 126.587 45.541,126.212 45.768,126.167 45.837 C 126.121 45.906,125.821 46.082,125.500 46.228 C 124.880 46.511,124.442 46.759,123.039 47.625 C 122.557 47.923,122.088 48.167,121.997 48.167 C 121.907 48.167,121.833 48.224,121.833 48.294 C 121.833 48.364,121.552 48.553,121.208 48.714 C 120.865 48.874,120.283 49.193,119.917 49.421 C 119.550 49.649,118.912 50.025,118.500 50.256 C 117.736 50.684,116.739 51.254,115.634 51.893 C 115.295 52.089,114.363 52.625,113.564 53.083 C 111.685 54.160,111.369 54.345,110.667 54.773 C 110.346 54.968,109.558 55.412,108.917 55.759 C 108.275 56.105,107.712 56.437,107.667 56.497 C 107.621 56.556,106.946 56.959,106.167 57.392 C 105.388 57.826,104.412 58.376,104.000 58.616 C 103.115 59.131,101.044 60.813,100.618 61.364 C 100.454 61.576,100.134 61.975,99.908 62.250 C 97.380 65.327,96.583 72.024,98.352 75.324 C 98.525 75.647,98.667 75.988,98.667 76.081 C 98.667 76.174,98.966 76.662,99.332 77.167 C 99.697 77.671,100.063 78.233,100.146 78.417 C 100.228 78.600,100.773 79.187,101.356 79.722 C 102.785 81.032,102.855 81.089,103.333 81.335 C 103.563 81.453,103.788 81.607,103.834 81.676 C 104.015 81.950,107.335 83.167,107.900 83.167 C 108.230 83.167,108.500 83.242,108.500 83.333 C 108.500 83.526,112.708 83.570,112.899 83.379 C 112.965 83.313,113.454 83.170,113.985 83.061 C 114.835 82.888,115.309 82.711,116.874 81.984 C 117.081 81.889,117.625 81.593,118.083 81.328 C 118.542 81.063,119.254 80.653,119.667 80.418 C 121.002 79.657,121.735 79.233,122.500 78.778 C 122.912 78.533,123.925 77.954,124.750 77.490 C 126.796 76.341,127.402 75.981,127.500 75.856 C 127.546 75.798,127.846 75.618,128.167 75.457 C 128.487 75.296,129.012 75.004,129.333 74.810 C 129.654 74.615,130.292 74.249,130.750 73.996 C 132.662 72.941,133.254 72.597,133.333 72.496 C 133.379 72.438,133.904 72.127,134.500 71.806 C 136.458 70.751,137.579 70.114,137.833 69.912 C 137.971 69.803,138.533 69.470,139.083 69.173 C 139.633 68.876,140.608 68.324,141.250 67.946 C 142.718 67.082,143.128 66.847,144.027 66.353 C 144.425 66.134,144.787 65.909,144.833 65.853 C 144.879 65.796,145.179 65.616,145.500 65.451 C 145.821 65.287,146.233 65.061,146.417 64.949 C 146.600 64.837,147.275 64.451,147.917 64.091 C 148.558 63.731,149.121 63.390,149.167 63.334 C 149.212 63.278,149.550 63.094,149.917 62.925 C 150.283 62.756,150.621 62.568,150.667 62.508 C 150.712 62.448,151.012 62.266,151.333 62.103 C 152.202 61.662,156.743 59.042,157.833 58.352 C 158.063 58.207,158.512 57.956,158.833 57.793 C 159.154 57.631,159.717 57.315,160.083 57.091 C 160.450 56.867,161.069 56.515,161.458 56.309 C 162.785 55.606,162.429 55.507,160.635 56.080 C 157.018 57.235,153.419 56.907,150.119 55.122 C 149.549 54.814,144.896 52.140,139.778 49.179 C 129.145 43.027,130.208 43.513,128.918 44.210 " stroke="none" fill="#fbbb04" fill-rule="evenodd"></path><path id="path4" d="M62.833 4.149 C 62.696 4.226,62.246 4.339,61.833 4.401 C 60.909 4.541,59.489 5.150,57.750 6.156 C 57.292 6.421,56.692 6.755,56.417 6.899 C 56.142 7.043,55.167 7.608,54.250 8.153 C 53.333 8.698,51.952 9.506,51.179 9.947 C 50.407 10.389,49.455 10.938,49.064 11.167 C 48.673 11.396,47.730 11.940,46.968 12.376 C 46.206 12.812,45.208 13.392,44.750 13.664 C 44.292 13.937,43.288 14.518,42.519 14.955 C 41.750 15.392,40.812 15.929,40.435 16.149 C 40.058 16.368,39.525 16.672,39.250 16.825 C 38.975 16.977,38.314 17.360,37.780 17.676 C 37.247 17.992,36.481 18.438,36.079 18.667 C 34.490 19.571,31.568 21.253,31.305 21.413 C 31.151 21.507,30.401 21.940,29.638 22.376 C 28.875 22.812,27.950 23.346,27.583 23.564 C 27.217 23.781,26.167 24.389,25.250 24.915 C 24.333 25.440,23.283 26.049,22.917 26.268 C 22.550 26.486,21.622 27.021,20.855 27.457 C 20.087 27.893,19.142 28.438,18.754 28.667 C 18.367 28.896,17.395 29.458,16.595 29.917 C 15.795 30.375,15.015 30.827,14.862 30.922 C 14.709 31.016,14.333 31.228,14.026 31.392 C 13.115 31.881,13.548 31.894,15.029 31.423 C 19.335 30.052,22.633 30.537,27.292 33.226 C 28.506 33.927,30.456 35.053,31.625 35.729 C 32.794 36.404,35.475 37.952,37.583 39.168 C 39.692 40.384,42.306 41.893,43.393 42.522 C 45.359 43.659,46.096 43.901,46.525 43.552 C 46.766 43.356,47.227 43.088,49.583 41.773 C 50.408 41.313,51.121 40.889,51.167 40.831 C 51.212 40.773,51.850 40.399,52.583 40.000 C 53.317 39.601,53.954 39.231,54.000 39.179 C 54.046 39.126,54.346 38.949,54.667 38.785 C 54.987 38.620,55.625 38.265,56.083 37.995 C 56.542 37.724,57.254 37.315,57.667 37.086 C 58.079 36.857,58.717 36.486,59.083 36.261 C 59.450 36.037,60.688 35.319,61.833 34.665 C 62.979 34.011,64.667 33.037,65.583 32.501 C 67.775 31.220,67.766 31.226,70.083 29.920 C 75.872 26.659,78.500 22.728,78.500 17.333 C 78.500 11.235,73.604 5.010,68.316 4.383 C 67.862 4.330,67.451 4.221,67.402 4.143 C 67.288 3.959,63.164 3.965,62.833 4.149 " stroke="none" fill="#eb4434" fill-rule="evenodd"></path></g></svg>