<svg id="svg" xmlns="http://www.w3.org/2000/svg" xmlns:xlink="http://www.w3.org/1999/xlink" width="400" height="65.88235294117648" viewBox="0, 0, 400,65.88235294117648"><g id="svgg"><path id="path0" d="M44.750 3.258 C 43.798 3.550,43.262 3.787,42.667 4.180 C 42.438 4.331,41.313 4.964,40.167 5.586 C 39.021 6.208,37.858 6.888,37.582 7.097 C 37.307 7.306,36.585 7.700,35.977 7.973 C 35.370 8.245,34.827 8.543,34.770 8.634 C 34.714 8.724,34.349 8.965,33.959 9.168 C 33.569 9.372,32.867 9.792,32.399 10.102 C 31.932 10.413,31.425 10.667,31.274 10.667 C 31.123 10.667,31.000 10.733,31.000 10.814 C 31.000 10.895,30.869 11.006,30.708 11.062 C 30.548 11.117,30.154 11.326,29.833 11.527 C 29.512 11.727,28.238 12.467,27.000 13.170 C 25.762 13.873,24.179 14.798,23.482 15.224 C 22.784 15.651,22.115 16.000,21.995 16.000 C 21.875 16.000,21.658 16.103,21.513 16.230 C 21.050 16.634,17.665 18.667,17.455 18.667 C 17.344 18.667,16.877 18.917,16.418 19.222 C 15.959 19.528,15.377 19.905,15.125 20.059 C 14.424 20.490,14.543 20.796,15.458 20.920 C 16.573 21.072,18.275 21.733,19.342 22.430 C 19.841 22.756,20.684 23.245,21.214 23.517 C 21.744 23.788,22.664 24.308,23.259 24.672 C 23.853 25.036,24.389 25.333,24.451 25.333 C 24.512 25.333,24.717 25.469,24.906 25.636 C 25.095 25.802,25.587 26.082,26.000 26.258 C 26.412 26.434,26.841 26.665,26.953 26.771 C 27.064 26.878,27.664 27.248,28.286 27.593 C 28.908 27.939,29.454 28.266,29.500 28.320 C 29.546 28.375,30.221 28.746,31.000 29.144 C 31.779 29.543,32.454 29.922,32.500 29.987 C 32.546 30.052,33.033 30.356,33.583 30.662 C 34.133 30.968,34.720 31.336,34.887 31.479 C 35.214 31.760,36.122 31.392,37.750 30.317 C 38.117 30.075,38.942 29.596,39.583 29.253 C 41.250 28.362,42.237 27.785,42.337 27.643 C 42.385 27.576,43.109 27.160,43.947 26.719 C 45.694 25.799,47.378 24.836,47.500 24.686 C 47.649 24.502,48.230 24.170,49.250 23.685 C 49.800 23.424,50.635 22.956,51.106 22.647 C 51.577 22.337,52.402 21.821,52.939 21.500 C 57.265 18.918,58.770 13.061,56.342 8.256 C 55.701 6.987,54.562 5.500,54.232 5.500 C 54.148 5.500,53.888 5.322,53.653 5.104 C 51.744 3.334,47.423 2.438,44.750 3.258 M79.250 3.189 C 74.002 4.413,70.686 10.241,72.102 15.750 C 72.244 16.300,72.399 16.916,72.448 17.120 C 72.497 17.323,72.641 17.576,72.768 17.682 C 72.896 17.788,73.000 17.948,73.000 18.039 C 73.000 18.566,75.097 20.782,76.220 21.441 C 76.878 21.827,77.501 22.218,77.605 22.310 C 77.709 22.401,78.159 22.673,78.605 22.914 C 79.051 23.154,79.529 23.417,79.667 23.497 C 80.438 23.945,82.754 25.303,83.291 25.621 C 83.635 25.825,84.292 26.179,84.750 26.408 C 85.208 26.637,86.221 27.224,87.000 27.712 C 88.569 28.695,88.689 28.763,90.000 29.427 C 90.504 29.682,91.142 30.056,91.417 30.258 C 91.692 30.460,92.367 30.869,92.917 31.167 C 94.313 31.925,95.950 32.863,96.474 33.206 C 96.718 33.365,97.321 33.691,97.816 33.930 C 98.310 34.169,98.798 34.437,98.899 34.525 C 99.184 34.772,101.782 36.306,103.083 36.995 C 103.725 37.335,104.513 37.782,104.833 37.989 C 106.728 39.210,107.213 39.500,107.360 39.500 C 107.451 39.500,108.052 39.819,108.695 40.208 C 111.390 41.840,111.785 42.055,112.500 42.286 C 115.665 43.309,118.331 43.153,121.165 41.779 C 122.209 41.274,124.678 38.778,125.068 37.833 C 125.239 37.421,125.482 36.845,125.608 36.554 C 126.356 34.828,126.356 31.005,125.608 29.279 C 125.482 28.988,125.237 28.413,125.064 28.002 C 124.633 26.974,122.313 24.651,121.119 24.050 C 120.251 23.613,117.991 22.279,117.017 21.627 C 116.778 21.467,116.471 21.294,116.333 21.242 C 115.923 21.087,114.423 20.285,114.333 20.172 C 114.238 20.052,113.261 19.486,111.583 18.579 C 110.942 18.232,110.042 17.704,109.583 17.405 C 109.125 17.106,108.337 16.647,107.833 16.384 C 106.758 15.824,104.763 14.646,103.587 13.876 C 103.131 13.578,102.658 13.333,102.536 13.333 C 102.343 13.333,101.737 12.976,98.977 11.236 C 98.644 11.026,98.107 10.743,97.784 10.608 C 97.461 10.473,96.759 10.078,96.224 9.729 C 95.688 9.381,95.100 9.011,94.917 8.908 C 94.733 8.805,93.796 8.284,92.833 7.750 C 91.871 7.216,90.858 6.614,90.583 6.413 C 90.308 6.211,89.638 5.839,89.093 5.587 C 88.549 5.334,88.010 5.034,87.896 4.920 C 86.485 3.508,81.854 2.582,79.250 3.189 M285.167 10.284 C 284.754 10.309,283.892 10.405,283.250 10.499 C 282.608 10.592,281.781 10.704,281.412 10.748 C 277.988 11.155,271.038 15.590,269.460 18.375 C 269.265 18.719,269.046 19.000,268.974 19.000 C 268.376 19.000,266.045 23.677,265.270 26.432 C 263.901 31.304,264.387 37.920,266.413 42.000 C 266.617 42.412,266.913 43.043,267.069 43.400 C 267.399 44.158,269.161 46.667,269.363 46.667 C 269.438 46.667,269.500 46.763,269.500 46.880 C 269.500 47.163,272.553 50.114,273.503 50.750 C 273.914 51.024,274.287 51.296,274.333 51.352 C 274.505 51.566,276.328 52.669,276.453 52.635 C 276.525 52.616,276.978 52.804,277.460 53.054 C 278.747 53.720,281.028 54.441,282.833 54.753 C 284.362 55.017,289.467 55.143,289.818 54.926 C 289.902 54.874,290.296 54.796,290.693 54.752 C 293.305 54.465,296.907 53.129,299.167 51.609 C 301.428 50.088,305.333 45.895,305.333 44.988 C 305.333 44.903,305.397 44.833,305.475 44.833 C 305.755 44.833,306.650 42.546,307.139 40.581 C 307.935 37.381,308.124 34.528,307.728 31.708 L 307.629 31.000 297.148 31.000 L 286.667 31.000 286.667 33.750 L 286.667 36.500 294.352 36.500 L 302.038 36.500 301.942 37.292 C 301.795 38.497,301.224 40.568,300.816 41.368 C 300.363 42.259,298.512 44.999,298.361 45.003 C 298.300 45.005,297.848 45.380,297.357 45.836 C 296.866 46.293,296.398 46.667,296.316 46.667 C 296.234 46.667,296.167 46.738,296.167 46.824 C 296.167 47.272,291.984 48.882,289.853 49.255 C 286.761 49.797,280.590 49.011,279.833 47.979 C 279.787 47.917,279.337 47.683,278.833 47.459 C 276.993 46.643,273.885 43.588,272.523 41.257 C 270.130 37.160,269.745 30.400,271.652 25.952 C 271.837 25.520,271.952 25.167,271.907 25.167 C 271.780 25.167,272.476 23.868,272.667 23.750 C 272.761 23.691,272.796 23.574,272.743 23.488 C 272.690 23.403,272.714 23.333,272.796 23.333 C 272.878 23.333,273.229 22.920,273.577 22.416 C 274.329 21.323,276.935 18.801,277.802 18.326 C 279.858 17.201,280.339 16.961,281.158 16.654 C 283.134 15.913,287.695 15.525,290.000 15.902 C 290.949 16.058,294.714 17.505,295.000 17.825 C 295.046 17.876,295.498 18.188,296.004 18.519 C 296.510 18.849,297.315 19.519,297.792 20.006 L 298.660 20.892 300.663 18.913 C 301.765 17.825,302.667 16.844,302.667 16.734 C 302.667 15.823,296.337 11.502,295.637 11.935 C 295.533 11.999,295.494 11.978,295.549 11.889 C 295.643 11.737,293.648 10.998,292.917 10.914 C 292.733 10.893,292.583 10.858,292.583 10.836 C 292.583 10.813,292.369 10.770,292.106 10.740 C 291.843 10.709,291.093 10.603,290.439 10.504 C 289.212 10.319,286.485 10.205,285.167 10.284 M373.500 10.340 C 372.813 10.410,371.988 10.521,371.667 10.588 C 371.346 10.655,370.907 10.700,370.692 10.689 C 370.476 10.677,370.217 10.719,370.115 10.782 C 370.014 10.844,369.749 10.915,369.528 10.939 C 368.951 11.000,366.175 12.103,365.583 12.506 C 365.308 12.693,364.690 13.030,364.208 13.254 C 363.727 13.479,363.333 13.751,363.333 13.859 C 363.333 13.967,363.286 14.009,363.229 13.951 C 362.974 13.696,357.765 18.623,357.523 19.347 C 357.489 19.450,357.084 20.104,356.623 20.799 C 354.129 24.565,353.278 28.907,353.647 35.976 C 353.676 36.524,354.102 38.363,354.523 39.750 C 355.020 41.390,355.027 41.417,354.973 41.417 C 354.846 41.417,356.604 44.488,357.023 44.996 C 357.285 45.315,357.500 45.661,357.500 45.765 C 357.500 45.869,357.850 46.320,358.279 46.769 C 358.707 47.217,359.406 47.983,359.833 48.471 C 362.985 52.077,369.126 54.858,374.042 54.904 C 374.752 54.911,375.333 54.978,375.333 55.054 C 375.333 55.129,375.727 55.149,376.208 55.098 C 376.690 55.047,377.672 54.965,378.392 54.916 C 379.112 54.867,380.049 54.747,380.475 54.650 C 380.901 54.552,381.392 54.443,381.565 54.408 C 383.290 54.055,386.904 52.506,388.238 51.548 C 391.572 49.153,395.216 44.601,395.380 42.625 C 395.393 42.465,395.453 42.333,395.513 42.333 C 395.841 42.333,396.607 38.925,396.842 36.417 C 397.015 34.578,396.992 33.630,396.727 31.708 L 396.629 31.000 386.148 31.000 L 375.667 31.000 375.667 33.750 L 375.667 36.500 383.333 36.500 L 391.000 36.500 391.000 36.890 C 391.000 37.519,390.403 39.670,389.934 40.729 C 389.695 41.268,389.500 41.810,389.500 41.935 C 389.500 42.061,389.392 42.295,389.259 42.456 C 389.127 42.618,388.733 43.132,388.384 43.599 C 387.308 45.041,386.953 45.402,385.646 46.386 C 384.197 47.476,381.860 48.560,379.833 49.082 C 379.609 49.139,378.279 49.370,377.875 49.421 C 377.122 49.516,374.115 49.521,373.667 49.429 C 371.478 48.975,370.538 48.701,369.250 48.140 C 368.425 47.781,367.675 47.471,367.583 47.452 C 367.492 47.432,367.379 47.376,367.333 47.325 C 367.287 47.275,366.988 47.054,366.667 46.834 C 364.634 45.443,362.563 43.138,361.284 40.844 C 361.000 40.334,360.688 39.862,360.592 39.794 C 360.496 39.727,360.474 39.671,360.544 39.669 C 360.614 39.668,360.552 39.385,360.407 39.042 C 359.648 37.245,359.202 32.467,359.555 29.917 C 359.631 29.367,359.711 28.787,359.732 28.628 C 359.753 28.470,359.823 28.289,359.885 28.226 C 359.948 28.163,360.000 27.891,360.000 27.622 C 360.000 25.168,364.141 19.812,367.526 17.888 C 373.712 14.371,382.658 15.376,386.743 20.046 L 387.480 20.888 388.988 19.410 C 389.817 18.597,390.605 17.871,390.739 17.796 C 390.873 17.721,391.146 17.430,391.346 17.149 L 391.710 16.638 390.903 15.819 C 390.459 15.369,390.049 15.000,389.992 15.000 C 389.934 15.000,389.591 14.719,389.229 14.375 C 386.402 11.694,378.957 9.784,373.500 10.340 M188.468 11.084 C 186.824 11.951,186.032 14.220,186.690 16.183 C 188.113 20.435,194.891 18.833,194.447 14.349 C 194.165 11.507,190.974 9.764,188.468 11.084 M131.063 11.243 C 130.988 11.438,132.554 17.184,132.950 18.167 C 133.092 18.521,133.116 18.614,133.400 19.917 C 133.540 20.558,133.886 21.871,134.170 22.833 C 134.453 23.796,134.790 24.958,134.918 25.417 C 135.046 25.875,135.349 26.887,135.590 27.667 C 135.832 28.446,136.086 29.421,136.156 29.833 C 136.290 30.629,137.138 33.635,137.308 33.917 C 137.363 34.008,137.431 34.251,137.459 34.455 C 137.487 34.659,137.723 35.522,137.983 36.372 C 138.242 37.221,138.549 38.329,138.665 38.833 C 138.781 39.337,138.915 39.862,138.963 40.000 C 139.012 40.137,139.066 40.325,139.084 40.417 C 139.101 40.508,139.133 40.621,139.154 40.667 C 139.174 40.712,139.224 40.923,139.263 41.135 C 139.302 41.347,139.812 43.147,140.395 45.135 C 140.978 47.123,141.542 49.125,141.647 49.583 C 141.752 50.042,141.873 50.567,141.915 50.750 C 141.957 50.933,142.181 51.715,142.413 52.488 C 142.644 53.260,142.833 53.916,142.833 53.946 C 142.833 53.976,144.178 54.000,145.820 54.000 L 148.807 54.000 148.992 53.441 C 149.093 53.134,149.209 52.712,149.249 52.504 C 149.289 52.296,149.915 50.354,150.640 48.188 C 153.734 38.947,154.515 36.555,154.595 36.083 C 154.681 35.578,155.075 34.364,155.353 33.750 C 155.537 33.342,157.340 27.950,157.331 27.833 C 157.313 27.614,157.741 26.167,157.823 26.169 C 157.935 26.171,160.036 32.261,160.295 33.333 C 160.395 33.746,160.548 34.271,160.635 34.500 C 160.722 34.729,160.803 34.973,160.815 35.041 C 160.835 35.149,160.998 35.603,161.702 37.500 C 161.787 37.729,161.856 37.934,161.856 37.955 C 161.855 37.976,162.073 38.613,162.341 39.371 C 162.608 40.130,162.828 40.919,162.830 41.125 C 162.832 41.331,162.906 41.500,162.995 41.500 C 163.084 41.500,163.113 41.612,163.060 41.750 C 163.008 41.887,163.052 42.000,163.159 42.000 C 163.266 42.000,163.311 42.068,163.259 42.152 C 163.208 42.235,163.613 43.572,164.161 45.123 C 164.708 46.673,165.271 48.386,165.412 48.929 C 165.738 50.184,166.342 52.033,166.496 52.250 C 166.562 52.342,166.712 52.775,166.830 53.212 L 167.045 54.007 170.064 53.962 L 173.083 53.917 173.297 52.833 C 173.415 52.237,173.957 50.175,174.502 48.250 C 175.047 46.325,175.516 44.600,175.543 44.417 C 175.570 44.233,175.640 44.008,175.697 43.917 C 175.754 43.825,175.879 43.328,175.974 42.813 C 176.070 42.297,176.489 40.675,176.905 39.207 C 177.322 37.739,177.690 36.399,177.723 36.228 C 177.756 36.057,177.828 35.804,177.882 35.667 C 178.102 35.108,178.656 32.894,178.653 32.583 C 178.651 32.400,179.067 30.825,179.578 29.083 C 180.089 27.342,180.538 25.767,180.575 25.583 C 180.613 25.400,180.757 24.881,180.897 24.430 C 181.037 23.979,181.116 23.553,181.073 23.483 C 181.030 23.413,181.071 23.309,181.164 23.252 C 181.257 23.194,181.333 22.987,181.333 22.793 C 181.333 22.598,181.824 20.694,182.424 18.562 C 183.665 14.155,183.564 14.537,183.986 12.667 C 184.388 10.881,184.560 10.984,181.241 11.038 L 178.423 11.083 177.370 14.917 C 176.791 17.025,176.293 19.014,176.264 19.338 C 176.236 19.661,176.094 20.336,175.950 20.838 C 175.805 21.339,175.461 22.613,175.184 23.667 C 174.907 24.721,174.451 26.408,174.170 27.417 C 173.890 28.425,173.597 29.662,173.519 30.167 C 173.441 30.671,172.842 33.033,172.188 35.417 C 171.535 37.800,170.959 40.012,170.908 40.333 C 170.750 41.342,169.954 44.333,169.843 44.333 C 169.711 44.333,168.180 39.985,167.995 39.083 C 167.920 38.717,167.765 38.192,167.651 37.917 C 167.538 37.642,167.432 37.379,167.416 37.333 C 167.401 37.287,167.344 37.137,167.290 37.000 C 167.134 36.600,165.433 31.391,164.923 29.750 C 164.666 28.925,164.378 28.063,164.284 27.833 C 164.189 27.604,164.100 27.379,164.087 27.333 C 163.782 26.308,163.585 25.833,163.464 25.833 C 163.381 25.833,163.355 25.766,163.406 25.685 C 163.456 25.603,163.312 24.984,163.086 24.310 C 162.690 23.130,161.396 19.265,160.848 17.627 L 160.583 16.838 157.893 16.836 C 155.162 16.833,154.735 16.937,155.093 17.515 C 155.144 17.598,155.107 17.667,155.010 17.667 C 154.913 17.667,154.833 17.780,154.833 17.918 C 154.833 18.057,154.527 19.051,154.152 20.127 C 153.777 21.203,153.451 22.158,153.428 22.250 C 153.404 22.342,153.296 22.633,153.188 22.898 C 153.080 23.162,152.967 23.500,152.937 23.648 C 152.908 23.796,152.829 24.042,152.762 24.195 C 152.696 24.349,152.621 24.574,152.596 24.695 C 152.571 24.817,152.465 25.128,152.359 25.386 C 152.253 25.644,152.167 25.946,152.167 26.057 C 152.167 26.243,150.453 31.293,150.012 32.406 C 149.905 32.676,149.641 33.538,149.425 34.323 C 149.209 35.108,148.546 37.137,147.951 38.833 C 147.356 40.529,146.697 42.501,146.487 43.215 C 146.263 43.972,146.055 44.423,145.987 44.298 C 145.819 43.991,143.999 37.465,143.999 37.174 C 144.000 36.939,143.080 33.505,142.881 33.000 C 142.756 32.682,142.707 32.512,142.598 32.017 C 142.549 31.797,142.256 30.709,141.947 29.600 C 141.637 28.491,141.250 26.983,141.087 26.250 C 140.924 25.517,140.644 24.542,140.464 24.083 C 140.285 23.625,140.145 23.231,140.153 23.208 C 140.160 23.185,140.161 23.148,140.155 23.125 C 140.149 23.102,140.115 22.896,140.080 22.667 C 140.045 22.438,139.713 21.200,139.342 19.917 C 138.970 18.634,138.667 17.468,138.667 17.327 C 138.667 17.186,138.363 16.024,137.993 14.744 C 137.622 13.464,137.281 12.229,137.236 12.000 C 137.024 10.931,137.244 11.000,134.067 11.000 C 131.668 11.000,131.140 11.043,131.063 11.243 M221.500 32.496 L 221.500 54.000 224.333 54.000 L 227.167 54.000 227.167 45.368 C 227.167 38.222,227.210 36.566,227.418 35.743 C 227.661 34.786,228.145 33.506,228.330 33.333 C 228.501 33.174,229.333 31.840,229.341 31.712 C 229.346 31.641,229.760 31.246,230.261 30.833 C 233.787 27.933,238.705 28.358,240.570 31.725 C 241.764 33.881,241.729 33.515,241.794 44.292 L 241.853 54.000 244.771 54.000 L 247.690 54.000 247.629 43.625 C 247.556 31.282,247.552 31.249,245.591 27.957 C 243.037 23.668,235.608 22.292,230.571 25.174 C 230.087 25.451,229.667 25.739,229.637 25.814 C 229.608 25.889,229.266 26.149,228.878 26.392 C 228.490 26.635,227.895 27.206,227.554 27.662 C 227.214 28.118,226.928 28.474,226.919 28.454 C 226.910 28.433,226.950 27.704,227.009 26.833 C 227.069 25.962,227.109 22.063,227.100 18.167 L 227.083 11.083 224.292 11.038 L 221.500 10.992 221.500 32.496 M314.333 32.482 L 314.333 54.000 322.208 53.999 C 328.230 53.998,330.456 53.941,331.667 53.757 C 334.138 53.381,338.500 52.034,338.500 51.647 C 338.500 51.566,338.595 51.500,338.711 51.500 C 338.898 51.500,340.621 50.429,340.833 50.180 C 340.879 50.127,341.116 49.980,341.359 49.855 C 342.379 49.330,346.167 45.118,346.167 44.509 C 346.167 44.412,346.240 44.333,346.330 44.333 C 346.420 44.333,346.545 44.127,346.608 43.875 C 346.670 43.623,346.970 42.964,347.273 42.411 C 347.576 41.858,347.853 41.258,347.887 41.078 C 347.921 40.897,348.033 40.545,348.136 40.295 C 348.588 39.194,349.017 37.081,349.088 35.613 C 349.113 35.080,349.179 34.599,349.234 34.544 C 349.877 33.900,348.824 26.280,347.766 23.922 C 347.559 23.461,347.208 22.674,346.986 22.174 C 345.307 18.381,341.244 14.608,337.006 12.904 C 334.746 11.996,333.040 11.556,330.500 11.227 C 330.087 11.174,326.281 11.093,322.042 11.047 L 314.333 10.965 314.333 32.482 M203.000 20.097 L 203.000 24.500 200.500 24.500 L 198.000 24.500 198.000 27.167 L 198.000 29.833 200.488 29.833 L 202.977 29.833 203.048 38.792 C 203.135 49.679,203.138 49.694,205.500 52.158 C 207.072 53.797,208.993 54.526,211.741 54.525 C 213.631 54.525,215.763 54.249,215.927 53.983 C 215.978 53.901,216.165 53.833,216.343 53.833 C 216.772 53.833,216.759 53.413,216.299 52.396 C 216.096 51.949,215.927 51.471,215.923 51.333 C 215.919 51.196,215.728 50.534,215.499 49.862 C 215.034 48.496,215.233 48.573,213.318 49.011 C 212.023 49.308,211.091 49.034,210.113 48.069 C 208.886 46.860,208.849 46.555,208.837 37.542 L 208.827 29.833 212.414 29.833 L 216.000 29.833 216.000 27.167 L 216.000 24.500 212.417 24.500 L 208.833 24.500 208.833 20.077 L 208.833 15.654 205.917 15.674 L 203.000 15.695 203.000 20.097 M331.966 17.142 C 333.911 17.644,336.076 18.574,337.250 19.413 C 338.185 20.081,340.667 22.521,340.667 22.772 C 340.667 22.834,340.854 23.131,341.083 23.431 C 341.313 23.732,341.500 24.030,341.500 24.093 C 341.500 24.157,341.758 24.855,342.073 25.646 C 343.084 28.179,343.251 29.201,343.238 32.750 C 343.223 36.780,342.902 38.166,341.195 41.583 C 340.720 42.533,338.761 44.689,337.674 45.458 C 337.074 45.883,336.543 46.288,336.494 46.358 C 335.662 47.558,331.261 48.377,325.208 48.459 L 319.833 48.531 319.833 32.583 L 319.833 16.636 325.208 16.711 C 330.007 16.777,330.732 16.824,331.966 17.142 M10.917 23.082 C 7.395 23.976,5.243 25.700,3.814 28.771 C 2.962 30.602,2.702 34.456,3.331 35.917 C 4.072 37.638,4.376 38.195,5.093 39.146 C 6.009 40.362,7.650 41.624,9.543 42.569 C 10.255 42.924,11.021 43.372,11.247 43.565 C 11.473 43.759,12.016 44.101,12.454 44.326 C 12.892 44.551,13.909 45.114,14.714 45.576 C 15.519 46.038,16.381 46.529,16.630 46.667 C 16.879 46.804,17.121 46.954,17.167 47.000 C 17.212 47.046,17.587 47.254,18.000 47.463 C 18.412 47.672,19.350 48.215,20.083 48.670 C 20.817 49.125,21.754 49.659,22.167 49.856 C 22.579 50.053,23.404 50.531,24.000 50.917 C 24.596 51.303,25.908 52.068,26.917 52.618 C 27.925 53.167,29.230 53.928,29.818 54.309 C 30.405 54.689,30.986 55.000,31.109 55.000 C 31.232 55.000,31.333 55.075,31.333 55.167 C 31.333 55.258,31.479 55.333,31.657 55.333 C 31.835 55.333,32.026 55.407,32.081 55.496 C 32.136 55.585,32.684 55.937,33.299 56.277 C 33.914 56.617,34.642 57.063,34.917 57.267 C 35.192 57.471,35.829 57.833,36.333 58.073 C 37.264 58.514,37.399 58.591,38.583 59.351 C 38.950 59.587,39.925 60.139,40.750 60.578 C 41.575 61.017,42.444 61.514,42.681 61.681 C 45.247 63.487,51.042 63.101,53.455 60.963 C 57.743 57.165,58.699 52.691,56.258 47.851 C 55.735 46.813,54.251 45.000,53.925 45.000 C 53.843 45.000,53.633 44.869,53.458 44.708 C 52.983 44.272,50.723 42.905,49.566 42.354 C 49.006 42.087,48.106 41.570,47.566 41.204 C 47.026 40.838,45.908 40.182,45.083 39.745 C 44.258 39.308,43.173 38.681,42.671 38.351 C 42.170 38.020,41.335 37.525,40.816 37.250 C 39.217 36.403,37.596 35.465,37.321 35.228 C 37.177 35.104,36.540 34.737,35.905 34.413 C 35.270 34.089,34.150 33.456,33.417 33.006 C 32.683 32.555,31.624 31.958,31.062 31.678 C 30.501 31.398,29.676 30.918,29.229 30.611 C 28.782 30.304,27.892 29.770,27.250 29.424 C 26.608 29.079,25.558 28.487,24.917 28.108 C 24.275 27.730,23.600 27.333,23.417 27.225 C 23.233 27.117,22.708 26.837,22.250 26.603 C 21.792 26.368,20.749 25.761,19.934 25.255 C 19.118 24.748,18.387 24.333,18.309 24.333 C 18.231 24.333,18.167 24.267,18.167 24.186 C 18.167 24.105,17.773 23.914,17.292 23.763 C 16.810 23.611,16.267 23.419,16.083 23.337 C 14.964 22.832,12.399 22.705,10.917 23.082 M187.500 39.250 L 187.500 54.000 190.417 54.000 L 193.333 54.000 193.333 39.250 L 193.333 24.500 190.417 24.500 L 187.500 24.500 187.500 39.250 M92.392 34.962 C 91.828 35.304,90.840 35.902,90.196 36.292 C 89.552 36.681,88.932 37.000,88.817 37.000 C 88.703 37.000,88.491 37.100,88.346 37.222 C 87.825 37.663,84.501 39.667,84.291 39.667 C 84.172 39.667,83.677 39.929,83.190 40.250 C 82.175 40.918,80.579 41.851,79.168 42.600 C 78.257 43.083,76.837 43.962,75.798 44.685 C 75.550 44.858,75.287 45.000,75.214 45.000 C 74.949 45.000,72.811 47.854,72.559 48.544 C 69.595 56.651,75.666 64.231,83.887 62.689 C 84.767 62.524,87.788 61.168,87.997 60.844 C 88.044 60.771,88.496 60.512,89.000 60.270 C 89.504 60.027,90.113 59.698,90.353 59.539 C 90.594 59.380,91.306 58.958,91.937 58.602 C 93.363 57.795,95.296 56.656,96.500 55.913 C 97.004 55.601,97.508 55.343,97.619 55.340 C 97.731 55.336,98.269 55.052,98.816 54.708 C 101.346 53.117,101.787 52.852,102.333 52.596 C 103.221 52.178,103.907 51.795,104.000 51.665 C 104.083 51.548,105.731 50.600,107.917 49.412 C 108.558 49.063,109.121 48.732,109.167 48.676 C 109.344 48.457,111.370 47.333,111.585 47.333 C 111.711 47.333,111.853 47.270,111.900 47.193 C 111.948 47.116,112.595 46.699,113.338 46.268 C 114.897 45.362,114.931 45.165,113.572 44.912 C 112.483 44.709,110.425 43.807,109.304 43.040 C 108.908 42.769,108.225 42.390,107.788 42.198 C 107.351 42.006,106.676 41.630,106.288 41.363 C 105.686 40.948,104.995 40.523,103.833 39.850 C 103.696 39.770,103.358 39.605,103.083 39.481 C 102.808 39.358,102.096 38.948,101.500 38.570 C 100.557 37.971,96.997 35.910,95.190 34.917 C 94.856 34.733,94.558 34.527,94.528 34.458 C 94.386 34.140,93.340 34.386,92.392 34.962 M298.470 36.291 C 296.391 36.318,292.941 36.318,290.803 36.292 C 288.666 36.265,290.367 36.244,294.583 36.243 C 298.800 36.243,300.549 36.265,298.470 36.291 M387.470 36.291 C 385.391 36.318,381.941 36.318,379.803 36.292 C 377.666 36.265,379.367 36.244,383.583 36.243 C 387.800 36.243,389.549 36.265,387.470 36.291 " stroke="none" fill="#747474" fill-rule="evenodd"></path><path id="path1" d="M319.913 32.583 C 319.913 41.383,319.934 44.959,319.958 40.529 C 319.983 36.099,319.983 28.899,319.958 24.529 C 319.934 20.159,319.913 23.783,319.913 32.583 M290.803 36.292 C 292.941 36.318,296.391 36.318,298.470 36.291 C 300.549 36.265,298.800 36.243,294.583 36.243 C 290.367 36.244,288.666 36.265,290.803 36.292 M379.803 36.292 C 381.941 36.318,385.391 36.318,387.470 36.291 C 389.549 36.265,387.800 36.243,383.583 36.243 C 379.367 36.244,377.666 36.265,379.803 36.292 " stroke="none" fill="#787474" fill-rule="evenodd"></path><path id="path2" d="M319.913 32.583 C 319.913 41.383,319.934 44.959,319.958 40.529 C 319.983 36.099,319.983 28.899,319.958 24.529 C 319.934 20.159,319.913 23.783,319.913 32.583 M290.803 36.292 C 292.941 36.318,296.391 36.318,298.470 36.291 C 300.549 36.265,298.800 36.243,294.583 36.243 C 290.367 36.244,288.666 36.265,290.803 36.292 M379.803 36.292 C 381.941 36.318,385.391 36.318,387.470 36.291 C 389.549 36.265,387.800 36.243,383.583 36.243 C 379.367 36.244,377.666 36.265,379.803 36.292 " stroke="none" fill="#787474" fill-rule="evenodd"></path><path id="path3" d="M319.913 32.583 C 319.913 41.383,319.934 44.959,319.958 40.529 C 319.983 36.099,319.983 28.899,319.958 24.529 C 319.934 20.159,319.913 23.783,319.913 32.583 M290.803 36.292 C 292.941 36.318,296.391 36.318,298.470 36.291 C 300.549 36.265,298.800 36.243,294.583 36.243 C 290.367 36.244,288.666 36.265,290.803 36.292 M379.803 36.292 C 381.941 36.318,385.391 36.318,387.470 36.291 C 389.549 36.265,387.800 36.243,383.583 36.243 C 379.367 36.244,377.666 36.265,379.803 36.292 " stroke="none" fill="#787474" fill-rule="evenodd"></path><path id="path4" d="M319.913 32.583 C 319.913 41.383,319.934 44.959,319.958 40.529 C 319.983 36.099,319.983 28.899,319.958 24.529 C 319.934 20.159,319.913 23.783,319.913 32.583 M290.803 36.292 C 292.941 36.318,296.391 36.318,298.470 36.291 C 300.549 36.265,298.800 36.243,294.583 36.243 C 290.367 36.244,288.666 36.265,290.803 36.292 M379.803 36.292 C 381.941 36.318,385.391 36.318,387.470 36.291 C 389.549 36.265,387.800 36.243,383.583 36.243 C 379.367 36.244,377.666 36.265,379.803 36.292 " stroke="none" fill="#787474" fill-rule="evenodd"></path></g></svg>